<?xml version="1.0" encoding="UTF-8"?>
<svg version="1.1" xmlns="http://www.w3.org/2000/svg" width="256" height="256">
<path d="M0 0 C8.35220203 6.37998932 17.67237916 15.85738133 21.05859375 26.03515625 C21.71859375 26.03515625 22.37859375 26.03515625 23.05859375 26.03515625 C23.43564453 24.95234375 23.43564453 24.95234375 23.8203125 23.84765625 C26.82141153 17.0312799 32.64140222 11.05596791 38.05859375 6.03515625 C38.65671875 5.431875 39.25484375 4.82859375 39.87109375 4.20703125 C51.9021399 -7.38169702 67.35530453 -12.51255039 83.89697266 -12.38696289 C103.16454674 -11.68385089 119.59386392 -3.07800492 132.74609375 10.78515625 C141.10342897 20.46905261 145.53242094 30.91211586 149.05859375 43.03515625 C149.23890137 43.62748047 149.41920898 44.21980469 149.60498047 44.83007812 C150.59115318 49.62400275 150.28475512 54.61882117 150.29882812 59.49511719 C150.30842916 61.50077272 150.33957421 63.50628792 150.37109375 65.51171875 C150.41882283 77.51558321 148.24134773 87.63524615 142.99609375 98.41015625 C142.60542725 99.22033203 142.21476074 100.03050781 141.81225586 100.86523438 C135.69976266 113.16057691 127.42756139 123.06378459 118.05859375 133.03515625 C116.84339872 134.42501997 115.63440588 135.8203473 114.43359375 137.22265625 C109.14299469 143.2938355 103.41687831 148.81822979 97.3125 154.0625 C95.09883765 155.99993412 92.93634353 157.98644813 90.7800293 159.98730469 C85.59555195 164.79633445 80.284899 169.35300812 74.7734375 173.7890625 C71.9518588 176.12346215 69.25268663 178.55506223 66.55859375 181.03515625 C62.08874255 185.14894534 57.46814482 189.00602922 52.7421875 192.8203125 C50.11150818 194.99148452 47.57916951 197.23756982 45.05859375 199.53515625 C39.89054927 204.24088365 34.52776842 208.68427928 29.05859375 213.03515625 C28.41664063 213.61523438 27.7746875 214.1953125 27.11328125 214.79296875 C24.21968814 216.54232732 22.38596693 216.48985476 19.05859375 216.03515625 C16.59375 214.5234375 16.59375 214.5234375 14.12109375 212.34765625 C13.16976562 211.52523437 12.2184375 210.7028125 11.23828125 209.85546875 C10.72749023 209.40204102 10.21669922 208.94861328 9.69042969 208.48144531 C7.97442088 206.9605542 6.24149344 205.46102141 4.50390625 203.96484375 C1.95878982 201.7711926 -0.57990071 199.57047546 -3.11328125 197.36328125 C-6.72875077 194.21573903 -10.36235466 191.0899597 -14.00390625 187.97265625 C-14.57512207 187.48321533 -15.14633789 186.99377441 -15.73486328 186.48950195 C-18.66710334 183.97810414 -21.60302101 181.47112043 -24.54296875 178.96875 C-30.96130118 173.49841215 -37.28823851 167.95851939 -43.50390625 162.2578125 C-45.5841335 160.36093861 -47.68697523 158.50122682 -49.81640625 156.66015625 C-74.02484423 135.50237509 -100.19699244 110.19662611 -105.94140625 77.03515625 C-106.92412633 61.40493119 -107.51532247 45.53593188 -100.94140625 31.03515625 C-100.48378906 29.9575 -100.02617188 28.87984375 -99.5546875 27.76953125 C-92.08912748 11.48847433 -78.3610841 -1.953409 -61.5 -8.25 C-39.69533242 -15.17093544 -19.1618533 -12.80001622 0 0 Z M-75.7734375 21.375 C-87.5378643 35.81026964 -91.55006636 52.67534879 -89.94140625 71.03515625 C-88.17304194 85.97182568 -80.28515876 99.51881793 -70.94140625 111.03515625 C-70.31588867 111.81076904 -70.31588867 111.81076904 -69.67773438 112.60205078 C-59.7374736 124.83261112 -48.67244029 136.16604422 -36.74951172 146.4699707 C-34.50677861 148.41139144 -32.31815471 150.40877675 -30.12890625 152.41015625 C-25.75854941 156.3588707 -21.23837546 160.08142835 -16.66015625 163.78515625 C-13.16374843 166.67873514 -9.82632493 169.72864808 -6.47265625 172.78515625 C-2.97235417 175.89653588 0.67132116 178.81778692 4.3125 181.76171875 C7.93450153 184.76030323 11.40601829 187.908077 14.8671875 191.08984375 C16.86177303 192.86043839 18.8998767 194.47143866 21.05859375 196.03515625 C29.63361969 192.22624938 36.66755158 184.53711873 43.52734375 178.28515625 C46.14704185 175.95653572 48.83374685 173.73952678 51.55859375 171.53515625 C56.07956904 167.87501547 60.42548767 164.06733785 64.7265625 160.15234375 C66.81683264 158.25464456 68.9284549 156.3878221 71.05859375 154.53515625 C74.95995024 151.1372006 78.79992382 147.67368041 82.63671875 144.203125 C84.66885208 142.3840379 86.72905497 140.61170944 88.80859375 138.84765625 C98.78084215 130.12952428 108.040736 120.5807322 116.05859375 110.03515625 C116.65929687 109.26300781 117.26 108.49085938 117.87890625 107.6953125 C130.09620327 91.23209387 136.72047506 72.47488694 133.74951172 51.89404297 C130.82439487 35.72931679 122.88378899 21.94849706 109.30078125 12.34765625 C97.38440771 5.37221808 84.30104343 3.03956159 70.73046875 5.68359375 C53.09913889 11.08376546 42.59082617 23.54032428 34.02050781 39.16455078 C32.09638036 42.90634382 30.5678548 46.79307316 29.12890625 50.7421875 C28.05859375 53.03515625 28.05859375 53.03515625 25.05859375 55.03515625 C22.12109375 55.41015625 22.12109375 55.41015625 19.05859375 55.03515625 C15.3475389 52.06344115 13.98673193 48.91805833 12.30859375 44.53515625 C5.76237301 28.36027102 -4.83602163 15.19596293 -20.75 7.71484375 C-40.19784276 0.16791969 -61.70844853 6.46362232 -75.7734375 21.375 Z " fill="#FD3018" transform="translate(105.94140625,25.96484375)"/>
</svg>
